PathFileType   4   (X/Y/Z)
DataRate	CameraRate	NumFrames	NumMarkers	Units	OrigDataRate	OrigDataStartFrame	OrigNumFrames
120.0	120.0	6	37	mm	120.0	95	126
Frame#	Time	midhip	hip_r	hip_l	knee_r	knee_l	ankle_r	ankle_l	midasis	asis_r	asis_l	psis_r	psis_l	epicondLat_r	epicondLat_l	epicondMed_r	epicondMed_l	malleolusLat_r	malleolusLat_l	malleolusMedv_r	malleolusMedv_l	neck	subclavicle_r	subclavicle_l	sternalnotch	xyphoidprocess	thighwand_r	thighwand_l	upperleg1_r	upperleg1_l	upperleg2_r	upperleg2_l	shankwand_r	shankwand_l	lowerleg1_r	lowerleg1_l	toe_r	toe_l
 	 	X1	Y1	Z1	X2	Y2	Z2	X3	Y3	Z3	X4	Y4	Z4	X5	Y5	Z5	X6	Y6	Z6	X7	Y7	Z7	X8	Y8	Z8	X9	Y9	Z9	X10	Y10	Z10	X11	Y11	Z11	X12	Y12	Z12	X13	Y13	Z13	X14	Y14	Z14	X15	Y15	Z15	X16	Y16	Z16	X17	Y17	Z17	X18	Y18	Z18	X19	Y19	Z19	X20	Y20	Z20	X21	Y21	Z21	X22	Y22	Z22	X23	Y23	Z23	X24	Y24	Z24	X25	Y25	Z25	X26	Y26	Z26	X27	Y27	Z27	X28	Y28	Z28	X29	Y29	Z29	X30	Y30	Z30	X31	Y31	Z31	X32	Y32	Z32	X33	Y33	Z33	X34	Y34	Z34	X35	Y35	Z35	X36	Y36	Z36	X37	Y37	Z37

	95	0.92500	747.798	744.149	-258.076	732.144	742.341	-192.946	736.539	740.491	-323.174	757.993	403.170	-225.530	846.595	434.469	-347.450	711.453	65.573	-237.905	640.356	165.989	-342.483	805.743	809.183	-256.613	802.359	810.608	-156.344	809.127	807.759	-356.882	648.377	852.840	-229.684	646.516	849.662	-284.457	760.357	398.094	-170.816	843.581	437.695	-401.771	758.007	412.856	-272.415	863.951	400.649	-309.146	706.962	64.828	-200.682	633.474	170.607	-378.543	712.265	64.947	-263.337	646.572	164.270	-313.131	680.031	1218.552	-280.653	780.382	1161.080	-225.330	792.046	1163.226	-301.045	771.898	1160.878	-266.841	800.163	1078.779	-262.379	856.840	519.956	-110.526	949.296	596.536	-350.527	774.680	575.120	-132.985	861.386	627.283	-382.700	780.343	493.370	-156.705	883.425	543.235	-385.220	715.066	169.828	-119.957	716.279	255.743	-457.254	708.650	137.811	-196.701	685.817	233.706	-381.766	806.453	36.603	-215.304	695.475	79.616	-362.550
	96	0.93333	754.763	744.418	-257.985	739.229	742.322	-193.214	744.369	741.131	-323.423	760.720	402.920	-225.563	858.799	436.362	-346.345	711.685	65.518	-238.017	663.803	159.743	-342.418	813.255	809.415	-256.117	809.296	810.333	-155.824	817.215	808.498	-356.409	655.441	853.245	-229.791	653.840	850.228	-284.535	762.525	397.817	-170.830	857.179	439.842	-400.710	760.823	412.114	-272.126	875.584	402.903	-307.746	707.160	64.801	-200.798	656.902	164.096	-378.507	712.437	64.894	-263.435	669.879	158.498	-313.046	688.282	1218.989	-280.124	788.632	1161.232	-225.089	800.567	1163.202	-300.943	780.291	1160.977	-266.712	808.301	1078.804	-262.004	860.017	518.575	-109.750	959.328	600.295	-345.840	778.634	574.901	-132.959	871.839	629.878	-380.287	783.425	492.340	-156.593	895.126	546.095	-382.600	715.988	169.808	-120.086	736.606	252.758	-456.784	709.354	137.764	-196.735	706.665	229.487	-381.496	806.462	36.556	-215.357	723.599	77.034	-361.861
	97	0.94167	761.778	744.623	-257.696	746.101	742.172	-193.601	752.105	741.589	-323.777	763.511	402.573	-225.605	870.636	438.023	-345.222	711.941	65.439	-238.114	687.655	153.226	-342.472	820.642	809.452	-255.693	816.015	809.902	-155.380	825.268	809.003	-356.006	662.422	853.539	-229.989	661.201	850.639	-284.717	764.843	397.482	-170.857	870.366	441.759	-399.594	765.987	412.168	-272.636	886.499	405.060	-305.833	707.390	64.754	-200.898	680.779	157.295	-378.599	712.740	64.795	-263.526	693.964	152.386	-313.160	696.588	1219.300	-279.612	796.884	1161.207	-225.090	808.205	1162.914	-300.855	788.201	1160.890	-266.553	815.797	1078.577	-261.852	863.370	517.207	-109.123	968.921	603.565	-341.324	782.845	574.596	-133.071	881.810	632.242	-377.989	787.474	492.227	-156.683	906.223	548.547	-379.883	716.975	169.774	-120.197	757.152	249.507	-456.378	710.205	137.620	-196.887	727.940	224.912	-381.276	806.534	36.493	-215.433	751.920	74.323	-361.344
	98	0.95000	768.852	744.743	-257.191	753.063	741.937	-193.939	759.808	741.853	-324.080	766.408	402.175	-225.646	882.137	439.414	-344.087	712.203	65.355	-238.197	711.878	146.525	-342.638	828.044	809.359	-255.342	822.844	809.424	-155.012	833.244	809.295	-355.671	669.342	853.708	-230.241	668.611	850.878	-284.982	767.300	397.100	-170.888	883.105	443.401	-398.432	764.866	411.766	-272.440	897.329	406.810	-304.641	707.631	64.704	-200.982	705.083	150.296	-378.813	713.297	64.643	-263.630	719.173	146.123	-313.426	704.840	1219.511	-279.167	805.207	1161.077	-225.077	816.292	1162.726	-300.890	796.391	1160.776	-266.518	823.736	1078.376	-261.880	866.809	515.824	-108.606	978.103	606.383	-337.109	787.375	574.164	-133.103	891.626	634.333	-375.756	789.342	490.915	-156.811	917.133	550.881	-377.457	718.015	169.730	-120.297	777.919	246.015	-456.041	710.962	137.433	-197.072	749.253	220.164	-381.211	806.666	36.426	-215.543	780.412	71.581	-361.013
	99	0.95833	776.006	744.751	-256.601	759.956	741.636	-194.336	767.490	741.962	-324.433	769.387	401.733	-225.675	893.288	440.546	-342.933	712.443	65.288	-238.265	736.448	139.732	-342.913	835.381	809.172	-255.066	829.571	808.921	-154.739	841.191	809.424	-355.393	676.280	853.737	-230.531	676.077	850.939	-285.310	769.881	396.697	-170.909	895.366	444.746	-397.231	770.331	411.612	-272.582	908.184	407.937	-303.960	707.860	64.671	-201.052	729.802	143.195	-379.146	713.637	64.546	-263.727	742.759	139.298	-313.697	713.097	1219.623	-278.709	813.657	1160.875	-224.964	822.623	1162.166	-300.834	803.681	1160.493	-266.030	830.518	1077.902	-261.842	870.366	514.476	-108.159	986.994	608.805	-333.308	791.984	573.647	-132.895	900.896	635.948	-373.450	793.906	490.704	-156.589	927.538	552.785	-375.282	719.099	169.676	-120.402	798.915	242.331	-455.759	711.762	137.292	-197.206	770.724	215.172	-381.234	806.818	36.371	-215.671	809.064	68.902	-360.880
	100	0.96667	783.331	744.663	-256.155	766.991	741.276	-194.687	775.248	741.919	-324.739	772.464	401.280	-225.686	904.110	441.419	-341.736	712.657	65.253	-238.315	761.350	132.927	-343.287	842.789	808.921	-254.830	836.419	808.424	-154.509	849.158	809.417	-355.151	683.355	853.610	-230.853	683.607	850.823	-285.696	772.578	396.288	-170.913	907.122	445.778	-395.978	776.286	411.461	-272.972	918.682	408.922	-302.863	708.066	64.671	-201.101	754.933	136.079	-379.590	713.537	64.559	-263.787	767.372	132.548	-314.074	721.409	1219.562	-278.273	822.092	1160.574	-224.949	831.847	1162.009	-301.170	812.542	1160.260	-266.332	839.393	1077.679	-262.025	874.019	513.158	-107.756	995.705	610.860	-330.004	796.512	573.020	-132.758	909.463	637.187	-371.283	798.626	490.453	-156.510	937.152	554.368	-373.195	720.205	169.615	-120.500	820.169	238.518	-455.508	712.652	137.220	-197.358	792.524	209.951	-381.284	806.949	36.338	-215.788	837.876	66.361	-360.920
